<?xml version="1.0" standalone="no"?>
<!DOCTYPE svg PUBLIC "-//W3C//DTD SVG 20010904//EN"
 "http://www.w3.org/TR/2001/REC-SVG-20010904/DTD/svg10.dtd">
<svg version="1.0" xmlns="http://www.w3.org/2000/svg"
 width="347.000000pt" height="322.000000pt" viewBox="0 0 347.000000 322.000000"
 preserveAspectRatio="xMidYMid meet">

<g transform="translate(0.000000,322.000000) scale(0.100000,-0.100000)"
fill="#000000" stroke="none">
<path d="M0 1610 l0 -1610 223 1 c210 0 220 1 182 15 -22 9 -82 36 -132 60
-109 53 -193 130 -237 216 l-29 57 43 123 c62 183 91 226 225 338 22 18 73 64
113 101 49 46 82 69 100 71 37 2 91 -11 124 -30 l28 -16 -27 -28 c-35 -36 -27
-35 40 5 94 57 156 72 292 71 182 -1 308 -26 580 -114 229 -75 310 -90 479
-90 124 0 154 -3 219 -24 175 -56 292 -146 351 -269 41 -87 56 -154 56 -250 0
-66 -13 -177 -26 -219 -5 -17 20 -18 430 -18 l436 0 -1 858 c-1 748 -2 853
-15 822 -30 -75 -52 -103 -105 -136 -86 -54 -158 -61 -384 -39 -191 19 -189
19 -231 -16 -22 -18 -41 -34 -43 -35 -1 -2 -1 -8 1 -15 3 -8 19 1 45 24 l40
37 189 -15 c206 -17 300 -12 351 16 18 10 33 14 33 9 0 -6 -28 -63 -61 -128
-130 -248 -249 -393 -373 -452 l-70 -33 -153 12 c-191 15 -399 43 -478 66 -91
27 -167 68 -310 170 -71 51 -152 105 -180 121 -27 15 -73 42 -100 60 -86 55
-302 159 -485 234 -96 39 -177 73 -178 75 -6 6 26 137 48 195 44 118 55 188
51 320 -10 274 -6 514 8 573 15 60 21 66 41 41 30 -35 98 -65 164 -71 46 -4
66 -3 66 6 0 6 -16 11 -38 11 -111 0 -217 76 -274 195 -24 52 -28 72 -28 150
0 50 4 107 9 128 l9 37 -509 0 -509 0 0 -1610z"/>
<path d="M1567 3183 c32 -75 41 -143 26 -207 -16 -69 -12 -92 8 -56 23 41 18
194 -8 253 -26 55 -50 65 -26 10z"/>
<path d="M2410 3182 c41 -20 81 -42 88 -49 7 -7 16 -13 20 -13 12 0 103 -92
205 -205 148 -165 146 -163 222 -205 74 -41 145 -99 145 -118 0 -6 -21 3 -47
20 -40 27 -55 32 -112 32 l-66 1 0 -29 c0 -30 0 -30 57 -27 63 3 102 -13 143
-57 47 -48 65 -96 65 -167 l0 -65 -29 0 c-20 0 -32 6 -36 19 -3 10 -20 26 -39
36 -42 23 -94 14 -125 -21 l-23 -26 -29 28 c-16 15 -34 45 -40 66 -5 21 -14
38 -19 38 -26 0 6 -85 45 -119 46 -40 102 -54 189 -47 169 14 273 17 295 9 22
-9 20 -11 -35 -39 -78 -39 -99 -70 -99 -144 0 -68 15 -89 88 -127 65 -33 138
-41 172 -19 l25 16 0 625 0 625 -350 0 -350 0 0 -35 c0 -44 -20 -83 -67 -136
l-35 -39 -58 56 c-67 65 -111 96 -183 130 -84 39 -99 26 -17 -14z"/>
<path d="M2267 2595 c-22 -7 -50 -23 -63 -36 -47 -44 -68 -169 -28 -169 8 0
17 14 21 32 4 18 24 50 49 74 36 37 49 43 91 46 41 3 48 6 51 25 3 17 -3 26
-23 33 -34 13 -52 12 -98 -5z"/>
<path d="M2948 2443 c7 -3 16 -2 19 1 4 3 -2 6 -13 5 -11 0 -14 -3 -6 -6z"/>
<path d="M2413 2403 c9 -14 47 -24 47 -12 0 5 -4 9 -9 9 -5 0 -17 3 -27 7 -11
4 -15 3 -11 -4z"/>
<path d="M2495 2360 c3 -5 8 -10 11 -10 2 0 4 5 4 10 0 6 -5 10 -11 10 -5 0
-7 -4 -4 -10z"/>
<path d="M2297 2323 c-4 -3 -7 -18 -6 -32 1 -26 1 -25 10 3 9 31 7 41 -4 29z"/>
<path d="M2480 2234 c-30 -8 -73 -27 -95 -42 l-40 -27 33 -3 c17 -2 32 -7 32
-12 0 -14 67 -21 94 -9 15 7 31 27 38 46 7 18 18 33 25 33 7 0 13 5 13 10 0 6
-4 10 -9 10 -5 0 -15 2 -23 4 -7 3 -38 -2 -68 -10z"/>
<path d="M3043 1383 c-36 -40 -38 -43 -22 -43 14 0 69 55 69 69 0 19 -14 11
-47 -26z"/>
<path d="M1715 120 c-4 -6 -58 -10 -128 -10 -158 0 -326 -15 -402 -35 -81 -22
-185 -69 -161 -73 10 -2 43 7 74 21 93 41 191 56 428 63 192 6 222 5 235 -9
30 -29 116 -77 140 -77 21 1 20 3 -11 18 -44 21 -122 75 -139 96 -15 18 -27
20 -36 6z"/>
</g>
</svg>
